<svg xmlns="http://www.w3.org/2000/svg" width="1000" height="1000" viewBox="0 0 1000 1000" version="1.1"><path d="M 461.500 1 C 461.160 1.550, 459.360 2, 457.500 2 C 455.640 2, 453.840 2.450, 453.500 3 C 453.160 3.550, 452.002 4, 450.927 4 C 449.852 4, 448.191 4.397, 447.236 4.883 C 446.281 5.369, 444.375 6.214, 443 6.761 C 439.473 8.164, 426.798 14.033, 425 15.095 C 424.175 15.583, 421.475 17.100, 419 18.465 C 405.948 25.668, 385.414 41.740, 373.786 53.855 C 364.776 63.242, 345.791 85.329, 343.500 89.090 C 342.950 89.992, 338.788 96.178, 334.250 102.836 C 329.712 109.494, 326 115.216, 326 115.551 C 326 115.887, 324.475 118.487, 322.611 121.331 C 320.747 124.174, 315.552 133.700, 311.065 142.500 L 302.908 158.500 268.704 158.556 C 236.708 158.608, 223.638 159.346, 207 162.037 C 203.425 162.615, 198.250 163.335, 195.500 163.636 C 192.750 163.938, 190.072 164.593, 189.550 165.092 C 189.028 165.591, 186.917 166, 184.859 166 C 182.801 166, 180.840 166.450, 180.500 167 C 180.160 167.550, 178.360 168, 176.500 168 C 174.640 168, 172.840 168.450, 172.500 169 C 172.160 169.550, 170.810 170, 169.500 170 C 168.190 170, 166.840 170.450, 166.500 171 C 166.160 171.550, 164.810 172, 163.500 172 C 162.190 172, 160.840 172.450, 160.500 173 C 160.160 173.550, 159.002 174, 157.927 174 C 156.852 174, 155.191 174.397, 154.236 174.883 C 152.572 175.730, 149.578 176.991, 144.750 178.880 C 140.737 180.450, 124.571 188.392, 122 190.057 C 105.956 200.446, 101.292 203.815, 93.951 210.319 C 76.395 225.874, 62.795 245.395, 53.765 268 C 53.216 269.375, 52.369 271.281, 51.883 272.236 C 51.397 273.191, 51 274.852, 51 275.927 C 51 277.002, 50.550 278.160, 50 278.500 C 49.450 278.840, 49 280.415, 49 282 C 49 283.585, 48.550 285.160, 48 285.500 C 47.450 285.840, 47 288.090, 47 290.500 C 47 292.910, 46.550 295.160, 46 295.500 C 45.450 295.840, 45 299.151, 45 302.859 C 45 306.567, 44.529 310.071, 43.954 310.646 C 42.136 312.464, 44.103 361.424, 46.075 363.450 C 46.584 363.972, 47 366.533, 47 369.141 C 47 371.749, 47.450 374.160, 48 374.500 C 48.550 374.840, 49 376.640, 49 378.500 C 49 380.360, 49.450 382.160, 50 382.500 C 50.550 382.840, 51 384.640, 51 386.500 C 51 388.360, 51.450 390.160, 52 390.500 C 52.550 390.840, 53 392.190, 53 393.500 C 53 394.810, 53.450 396.160, 54 396.500 C 54.550 396.840, 55 398.415, 55 400 C 55 401.585, 55.450 403.160, 56 403.500 C 56.550 403.840, 57 405.126, 57 406.359 C 57 407.592, 57.406 409.027, 57.902 409.550 C 58.398 410.072, 59.503 412.525, 60.356 415 C 64.781 427.828, 79.844 459.805, 85.172 467.680 C 86.727 469.979, 88 472.141, 88 472.485 C 88 472.829, 89.800 475.760, 92 479 C 94.200 482.240, 96 485.105, 96 485.367 C 96 485.629, 98.025 488.863, 100.500 492.554 C 102.975 496.245, 105 499.603, 105 500.016 C 105 500.429, 102.975 503.725, 100.500 507.340 C 98.025 510.954, 96 514.312, 96 514.801 C 96 515.290, 95.100 516.505, 94 517.500 C 92.900 518.495, 92 519.715, 92 520.210 C 92 520.705, 90.278 523.673, 88.174 526.805 C 84.276 532.606, 65 570.930, 65 572.877 C 65 573.465, 64.034 576.096, 62.854 578.723 C 61.673 581.350, 60.271 584.625, 59.737 586 C 59.203 587.375, 58.369 589.281, 57.883 590.236 C 57.397 591.191, 57 592.660, 57 593.500 C 57 594.340, 56.594 595.809, 56.097 596.764 C 55.601 597.719, 54.657 600.525, 54 603 C 53.343 605.475, 52.399 608.281, 51.903 609.236 C 51.406 610.191, 51 612.302, 51 613.927 C 51 615.552, 50.550 617.160, 50 617.500 C 49.450 617.840, 49 619.640, 49 621.500 C 49 623.360, 48.550 625.160, 48 625.500 C 47.450 625.840, 47 628.251, 47 630.859 C 47 633.467, 46.584 636.027, 46.075 636.550 C 44.103 638.576, 42.136 687.536, 43.954 689.354 C 44.529 689.929, 45 693.433, 45 697.141 C 45 700.849, 45.450 704.160, 46 704.500 C 46.550 704.840, 47 707.090, 47 709.500 C 47 711.910, 47.450 714.160, 48 714.500 C 48.550 714.840, 49 716.415, 49 718 C 49 719.585, 49.450 721.160, 50 721.500 C 50.550 721.840, 51 722.998, 51 724.073 C 51 725.148, 51.397 726.809, 51.883 727.764 C 52.369 728.719, 53.216 730.625, 53.765 732 C 67.206 765.647, 89.363 790.791, 122.500 809.998 C 130.254 814.492, 141.291 820, 142.544 820 C 143.635 820, 146.928 821.443, 154.236 825.125 C 155.191 825.606, 156.852 826, 157.927 826 C 159.002 826, 160.160 826.450, 160.500 827 C 160.840 827.550, 162.190 828, 163.500 828 C 164.810 828, 166.160 828.450, 166.500 829 C 166.840 829.550, 168.190 830, 169.500 830 C 170.810 830, 172.160 830.450, 172.500 831 C 172.840 831.550, 174.640 832, 176.500 832 C 178.360 832, 180.160 832.450, 180.500 833 C 180.840 833.550, 182.801 834, 184.859 834 C 186.917 834, 189.027 834.409, 189.550 834.908 C 190.072 835.407, 192.750 836.062, 195.500 836.364 C 198.250 836.665, 203.425 837.385, 207 837.963 C 223.638 840.654, 236.708 841.392, 268.704 841.444 L 302.908 841.500 311.065 857.500 C 315.552 866.300, 320.747 875.826, 322.611 878.669 C 324.475 881.513, 326 884.255, 326 884.764 C 326 885.274, 326.900 886.505, 328 887.500 C 329.100 888.495, 330 889.711, 330 890.200 C 330 892.045, 340.789 907.311, 352.475 922 C 377.937 954.006, 409.944 979.644, 438.750 991.105 C 449.005 995.185, 451.361 996.163, 453.236 997.117 C 454.191 997.603, 456.302 998, 457.927 998 C 459.552 998, 461.160 998.450, 461.500 999 C 461.894 999.638, 475.824 1000, 500 1000 C 524.176 1000, 538.106 999.638, 538.500 999 C 538.840 998.450, 540.448 998, 542.073 998 C 543.698 998, 545.809 997.603, 546.764 997.117 C 548.480 996.244, 551.877 994.817, 556.250 993.134 C 589.035 980.512, 620.460 956.022, 647.525 922 C 659.211 907.311, 670 892.045, 670 890.200 C 670 889.711, 670.900 888.495, 672 887.500 C 673.100 886.505, 674 885.274, 674 884.764 C 674 884.255, 675.525 881.513, 677.389 878.669 C 679.253 875.826, 684.448 866.300, 688.935 857.500 L 697.092 841.500 731.296 841.444 C 763.292 841.392, 776.362 840.654, 793 837.963 C 796.575 837.385, 801.750 836.665, 804.500 836.364 C 807.250 836.062, 809.928 835.407, 810.450 834.908 C 810.973 834.409, 813.083 834, 815.141 834 C 817.199 834, 819.160 833.550, 819.500 833 C 819.840 832.450, 821.640 832, 823.500 832 C 825.360 832, 827.160 831.550, 827.500 831 C 827.840 830.450, 829.190 830, 830.500 830 C 831.810 830, 833.160 829.550, 833.500 829 C 833.840 828.450, 835.190 828, 836.500 828 C 837.810 828, 839.160 827.550, 839.500 827 C 839.840 826.450, 840.998 826, 842.073 826 C 843.148 826, 844.809 825.606, 845.764 825.125 C 853.060 821.449, 856.363 820, 857.444 820 C 858.567 820, 863.389 817.575, 878.149 809.585 C 898.545 798.545, 919.357 779.205, 932.352 759.215 C 936.431 752.942, 943.221 739.641, 946.118 732.250 C 949.666 723.199, 951 718.823, 951 716.238 C 951 715.072, 951.450 713.840, 952 713.500 C 952.550 713.160, 953 711.199, 953 709.141 C 953 707.083, 953.415 704.972, 953.922 704.450 C 956.966 701.314, 956.951 639.746, 953.905 636.550 C 953.407 636.027, 953 633.467, 953 630.859 C 953 628.251, 952.550 625.840, 952 625.500 C 951.450 625.160, 951 623.360, 951 621.500 C 951 619.640, 950.550 617.840, 950 617.500 C 949.450 617.160, 949 615.360, 949 613.500 C 949 611.640, 948.550 609.840, 948 609.500 C 947.450 609.160, 947 607.810, 947 606.500 C 947 605.190, 946.550 603.840, 946 603.500 C 945.450 603.160, 945 601.585, 945 600 C 945 598.415, 944.550 596.840, 944 596.500 C 943.450 596.160, 943 595.002, 943 593.927 C 943 592.852, 942.603 591.191, 942.117 590.236 C 941.631 589.281, 940.797 587.375, 940.263 586 C 939.729 584.625, 938.327 581.350, 937.146 578.723 C 935.966 576.096, 935 573.465, 935 572.877 C 935 570.930, 915.724 532.606, 911.826 526.805 C 909.722 523.673, 908 520.705, 908 520.210 C 908 519.715, 907.100 518.495, 906 517.500 C 904.900 516.505, 904 515.290, 904 514.801 C 904 514.312, 901.975 510.954, 899.500 507.340 C 897.025 503.725, 895 500.429, 895 500.016 C 895 499.603, 897.025 496.245, 899.500 492.554 C 901.975 488.863, 904 485.629, 904 485.367 C 904 485.105, 905.800 482.240, 908 479 C 910.200 475.760, 912 472.829, 912 472.485 C 912 472.141, 913.271 469.979, 914.825 467.680 C 920.067 459.922, 935.307 427.574, 939.644 415 C 940.497 412.525, 941.602 410.072, 942.098 409.550 C 942.594 409.027, 943 407.367, 943 405.859 C 943 404.351, 943.450 402.840, 944 402.500 C 944.550 402.160, 945 400.810, 945 399.500 C 945 398.190, 945.450 396.840, 946 396.500 C 946.550 396.160, 947 394.810, 947 393.500 C 947 392.190, 947.450 390.840, 948 390.500 C 948.550 390.160, 949 388.360, 949 386.500 C 949 384.640, 949.450 382.840, 950 382.500 C 950.550 382.160, 951 380.135, 951 378 C 951 375.865, 951.450 373.840, 952 373.500 C 952.550 373.160, 953 370.974, 953 368.641 C 953 366.308, 953.407 363.972, 953.905 363.450 C 956.951 360.254, 956.966 298.686, 953.922 295.550 C 953.415 295.028, 953 292.917, 953 290.859 C 953 288.801, 952.550 286.840, 952 286.500 C 951.450 286.160, 951 284.928, 951 283.762 C 951 281.175, 949.616 276.639, 946.113 267.750 C 943.684 261.583, 937.567 249.046, 935.258 245.500 C 933.826 243.300, 931.508 239.700, 930.107 237.500 C 925.361 230.045, 914.634 217.926, 906.049 210.319 C 898.708 203.815, 894.044 200.446, 878 190.057 C 875.429 188.392, 859.263 180.450, 855.250 178.880 C 850.422 176.991, 847.428 175.730, 845.764 174.883 C 844.809 174.397, 843.148 174, 842.073 174 C 840.998 174, 839.840 173.550, 839.500 173 C 839.160 172.450, 837.810 172, 836.500 172 C 835.190 172, 833.840 171.550, 833.500 171 C 833.160 170.450, 831.810 170, 830.500 170 C 829.190 170, 827.840 169.550, 827.500 169 C 827.160 168.450, 825.360 168, 823.500 168 C 821.640 168, 819.840 167.550, 819.500 167 C 819.160 166.450, 817.199 166, 815.141 166 C 813.083 166, 810.973 165.591, 810.450 165.092 C 809.928 164.593, 807.250 163.938, 804.500 163.636 C 801.750 163.335, 796.575 162.615, 793 162.037 C 776.362 159.346, 763.292 158.608, 731.296 158.556 L 697.092 158.500 688.935 142.500 C 684.448 133.700, 679.253 124.174, 677.389 121.331 C 675.525 118.487, 674 115.887, 674 115.551 C 674 115.216, 670.288 109.494, 665.750 102.836 C 661.212 96.178, 657.050 89.992, 656.500 89.090 C 654.209 85.329, 635.224 63.242, 626.214 53.855 C 614.586 41.740, 594.052 25.668, 581 18.465 C 578.525 17.100, 575.825 15.583, 575 15.095 C 573.202 14.033, 560.527 8.164, 557 6.761 C 555.625 6.214, 553.719 5.369, 552.764 4.883 C 551.809 4.397, 550.148 4, 549.073 4 C 547.998 4, 546.840 3.550, 546.500 3 C 546.160 2.450, 544.360 2, 542.500 2 C 540.640 2, 538.840 1.550, 538.500 1 C 537.654 -0.369, 462.346 -0.369, 461.500 1 M 488.500 52.121 C 486.300 52.623, 482.250 53.515, 479.500 54.102 C 463.695 57.475, 446.880 65.972, 431.500 78.356 C 418.944 88.468, 397.104 111.282, 390.370 121.322 C 388.829 123.620, 386.381 127.075, 384.930 129 C 383.479 130.925, 381.055 134.735, 379.544 137.468 C 378.033 140.200, 375.492 144.331, 373.898 146.648 C 372.304 148.965, 371 151.287, 371 151.808 C 371 152.329, 370.335 153.307, 369.523 153.981 C 367.351 155.783, 362.710 165.722, 363.467 166.947 C 363.825 167.526, 366.315 168, 369 168 C 371.685 168, 374.160 168.450, 374.500 169 C 374.840 169.550, 376.865 170, 379 170 C 381.135 170, 383.160 170.450, 383.500 171 C 383.840 171.550, 385.865 172, 388 172 C 390.135 172, 392.160 172.450, 392.500 173 C 392.840 173.550, 394.640 174, 396.500 174 C 398.360 174, 400.160 174.450, 400.500 175 C 400.840 175.550, 402.640 176, 404.500 176 C 406.360 176, 408.160 176.450, 408.500 177 C 408.840 177.550, 410.865 178, 413 178 C 415.135 178, 417.160 178.450, 417.500 179 C 417.840 179.550, 419.190 180, 420.500 180 C 421.810 180, 423.160 180.450, 423.500 181 C 423.840 181.550, 425.415 182, 427 182 C 428.585 182, 430.160 182.450, 430.500 183 C 430.840 183.550, 432.074 184, 433.242 184 C 434.411 184, 437.872 184.842, 440.933 185.870 C 443.995 186.899, 451.900 189.410, 458.500 191.451 C 465.100 193.492, 471.281 195.575, 472.236 196.081 C 473.191 196.586, 474.660 197, 475.500 197 C 476.340 197, 477.921 197.450, 479.014 198 C 480.106 198.550, 481.894 199.450, 482.986 200 C 484.079 200.550, 485.660 201, 486.500 201 C 487.340 201, 488.921 201.450, 490.014 202 C 491.106 202.550, 492.894 203.450, 493.986 204 C 496.545 205.288, 503.455 205.288, 506.014 204 C 507.106 203.450, 508.894 202.550, 509.986 202 C 511.079 201.450, 512.660 201, 513.500 201 C 514.340 201, 515.809 200.603, 516.764 200.117 C 521.539 197.688, 529.529 194.922, 546 189.998 C 550.125 188.765, 556.005 186.911, 559.067 185.878 C 562.128 184.845, 565.589 184, 566.758 184 C 567.926 184, 569.160 183.550, 569.500 183 C 569.840 182.450, 571.415 182, 573 182 C 574.585 182, 576.160 181.550, 576.500 181 C 576.840 180.450, 578.415 180, 580 180 C 581.585 180, 583.160 179.550, 583.500 179 C 583.840 178.450, 585.640 178, 587.500 178 C 589.360 178, 591.160 177.550, 591.500 177 C 591.840 176.450, 593.640 176, 595.500 176 C 597.360 176, 599.160 175.550, 599.500 175 C 599.840 174.450, 601.576 174, 603.359 174 C 605.142 174, 607.028 173.596, 607.550 173.102 C 608.072 172.609, 610.300 171.944, 612.500 171.626 C 614.700 171.308, 618.415 170.764, 620.756 170.418 C 623.097 170.072, 625.261 169.386, 625.565 168.894 C 625.869 168.402, 628.356 168, 631.090 168 C 634.293 168, 636.244 167.529, 636.571 166.676 C 637.137 165.201, 632.775 156.441, 628.071 149.603 C 626.382 147.148, 625 144.873, 625 144.547 C 625 143.263, 609.738 121.020, 603.354 113 C 591.658 98.308, 572.265 80.253, 557.500 70.311 C 536.014 55.844, 506.387 48.033, 488.500 52.121 M 235.585 213.750 C 235.174 214.162, 231.386 214.818, 227.169 215.206 C 209.126 216.866, 190.609 221.013, 176 226.666 C 166.597 230.304, 149.403 238.809, 147.977 240.528 C 147.305 241.338, 146.338 242, 145.828 242 C 145.319 242, 141.211 244.966, 136.701 248.591 C 128.970 254.805, 115.581 269.493, 112.627 275 C 104.236 290.645, 102.038 297.018, 99.026 314.434 C 95.916 332.420, 101.140 367.639, 110.050 388.750 C 110.573 389.988, 111.450 392.125, 112 393.500 C 112.550 394.875, 113.450 397.125, 114 398.500 C 114.550 399.875, 115.395 402.012, 115.877 403.250 C 118.553 410.117, 134.527 440.781, 138.349 446.390 C 139.807 448.529, 141 450.666, 141 451.140 C 141 453.421, 143.590 451.013, 153.789 439.250 C 167.292 423.677, 207.746 383.689, 222.038 371.789 C 247.328 350.730, 246 352.084, 246 347.369 C 246 345.031, 246.450 342.840, 247 342.500 C 247.550 342.160, 248 339.460, 248 336.500 C 248 333.540, 248.450 330.840, 249 330.500 C 249.550 330.160, 250 327.910, 250 325.500 C 250 323.090, 250.450 320.840, 251 320.500 C 251.550 320.160, 252 318.135, 252 316 C 252 313.865, 252.450 311.840, 253 311.500 C 253.550 311.160, 254 308.910, 254 306.500 C 254 304.090, 254.402 301.869, 254.894 301.565 C 255.386 301.261, 256.025 299.322, 256.313 297.256 C 256.601 295.190, 257.360 291.475, 258 289 C 258.640 286.525, 259.399 282.810, 259.687 280.744 C 259.975 278.678, 260.614 276.739, 261.106 276.435 C 261.598 276.131, 262 274.805, 262 273.488 C 262 272.171, 262.403 270.060, 262.896 268.797 C 263.389 267.534, 264.324 264.475, 264.975 262 C 267.536 252.257, 276.891 222.032, 279.754 214.250 C 280.113 213.274, 275.405 213, 258.274 213 C 246.206 213, 235.997 213.338, 235.585 213.750 M 720.947 215.750 C 721.391 217.262, 723.609 223.986, 725.877 230.690 C 728.145 237.395, 730 243.589, 730 244.454 C 730 245.319, 730.395 246.809, 730.877 247.764 C 732.337 250.653, 734 256.510, 734 258.762 C 734 259.928, 734.450 261.160, 735 261.500 C 735.550 261.840, 736 263.415, 736 265 C 736 266.585, 736.450 268.160, 737 268.500 C 737.550 268.840, 738 270.640, 738 272.500 C 738 274.360, 738.450 276.160, 739 276.500 C 739.550 276.840, 740 278.640, 740 280.500 C 740 282.360, 740.450 284.160, 741 284.500 C 741.550 284.840, 742 286.415, 742 288 C 742 289.585, 742.450 291.160, 743 291.500 C 743.550 291.840, 744 294.090, 744 296.500 C 744 298.910, 744.450 301.160, 745 301.500 C 745.550 301.840, 746 303.865, 746 306 C 746 308.135, 746.450 310.160, 747 310.500 C 747.550 310.840, 748 313.090, 748 315.500 C 748 317.910, 748.450 320.160, 749 320.500 C 749.550 320.840, 750 323.090, 750 325.500 C 750 327.910, 750.450 330.160, 751 330.500 C 751.550 330.840, 752 333.540, 752 336.500 C 752 339.460, 752.450 342.160, 753 342.500 C 753.550 342.840, 754 345.059, 754 347.431 C 754 351.636, 754.219 351.925, 762.750 358.969 C 784.023 376.535, 789.737 381.697, 810.367 401.990 C 822.394 413.821, 837.862 429.800, 844.740 437.500 C 851.618 445.200, 857.559 451.623, 857.942 451.773 C 858.324 451.923, 859.262 450.798, 860.026 449.273 C 860.789 447.748, 861.949 445.825, 862.604 445 C 865.321 441.577, 885 403.273, 885 401.409 C 885 400.738, 885.879 398.459, 886.954 396.345 C 888.029 394.230, 890.250 388.450, 891.891 383.500 C 901.425 354.729, 904.152 329.890, 900.028 309.389 C 896.810 293.393, 894.958 288.422, 887.032 274.500 C 881.542 264.858, 867.377 250.572, 854.531 241.723 C 849.607 238.331, 827.781 227.567, 821.829 225.596 C 805.450 220.172, 787.601 216.390, 773.500 215.357 C 769.650 215.075, 766.073 214.429, 765.550 213.922 C 765.028 213.415, 754.596 213, 742.370 213 L 720.140 213 720.947 215.750 M 337.250 221.707 C 336.563 223.188, 336 224.990, 336 225.713 C 336 226.436, 335.603 227.809, 335.117 228.764 C 334.631 229.719, 333.678 231.850, 333 233.500 C 332.322 235.150, 331.369 237.281, 330.883 238.236 C 330.397 239.191, 330 240.852, 330 241.927 C 330 243.002, 329.550 244.160, 329 244.500 C 328.450 244.840, 328 246.223, 328 247.573 C 328 248.923, 327.480 251.034, 326.844 252.264 C 324.319 257.148, 324 258.063, 324 260.427 C 324 261.777, 323.550 263.160, 323 263.500 C 322.450 263.840, 322 265.190, 322 266.500 C 322 267.810, 321.600 269.129, 321.110 269.432 C 320.621 269.734, 319.988 271.448, 319.704 273.241 C 319.419 275.033, 318.669 278.300, 318.037 280.500 C 315.343 289.876, 314.838 291.788, 313.621 297.250 C 312.916 300.413, 312.486 303, 312.666 303 C 312.845 303, 318.991 299.063, 326.323 294.250 C 339.456 285.630, 341.193 284.543, 347.408 281.052 C 351.441 278.787, 372.731 266.183, 376 264.126 C 381.053 260.945, 421.587 240.253, 423.816 239.715 C 425.781 239.242, 425.219 238.980, 418 237.004 C 415.525 236.326, 412.600 235.407, 411.500 234.961 C 410.400 234.515, 408.375 233.929, 407 233.658 C 405.625 233.386, 400.900 232.216, 396.500 231.057 C 387.248 228.619, 369.053 224.599, 357.500 222.441 C 353.100 221.619, 347.328 220.508, 344.674 219.973 C 338.343 218.697, 338.685 218.617, 337.250 221.707 M 654.500 220.081 C 652.300 220.544, 646.900 221.599, 642.500 222.426 C 631.162 224.558, 616.114 227.767, 612 228.930 C 606.369 230.522, 595.731 233.168, 592.738 233.721 C 591.219 234.001, 589.729 234.629, 589.429 235.115 C 589.128 235.602, 587.805 236, 586.488 236 C 585.171 236, 583.060 236.413, 581.797 236.919 C 580.534 237.424, 578.631 238.116, 577.570 238.456 C 576.145 238.913, 579.947 241.259, 592.070 247.404 C 612.478 257.749, 620.784 262.099, 624 264.126 C 627.106 266.084, 650.597 279.977, 654 281.869 C 658.246 284.230, 660.350 285.460, 664.538 288.026 C 670.696 291.799, 671.182 292.119, 679.448 297.835 C 683.691 300.770, 687.392 302.941, 687.673 302.660 C 687.954 302.379, 687.692 300.541, 687.092 298.575 C 686.491 296.609, 685.550 293.506, 685 291.679 C 684.450 289.852, 684 287.404, 684 286.238 C 684 285.072, 683.550 283.840, 683 283.500 C 682.450 283.160, 682 281.585, 682 280 C 682 278.415, 681.550 276.840, 681 276.500 C 680.450 276.160, 680 274.585, 680 273 C 680 271.415, 679.550 269.840, 679 269.500 C 678.450 269.160, 678 267.585, 678 266 C 678 264.415, 677.550 262.840, 677 262.500 C 676.450 262.160, 676 260.810, 676 259.500 C 676 258.190, 675.550 256.840, 675 256.500 C 674.450 256.160, 674 254.810, 674 253.500 C 674 252.190, 673.550 250.840, 673 250.500 C 672.450 250.160, 672 248.810, 672 247.500 C 672 246.190, 671.550 244.840, 671 244.500 C 670.450 244.160, 670 243.002, 670 241.927 C 670 240.039, 669.639 239.066, 667.156 234.264 C 666.520 233.034, 666 231.340, 666 230.500 C 666 229.660, 665.579 228.191, 665.065 227.236 C 664.552 226.281, 663.542 224.037, 662.821 222.250 C 661.449 218.844, 660.973 218.720, 654.500 220.081 M 490 270.523 C 485.875 272.344, 479.800 275.047, 476.500 276.528 C 469.377 279.727, 417.164 305.634, 415 307.043 C 414.175 307.581, 410.350 309.740, 406.500 311.842 C 395.766 317.701, 391.878 319.988, 387.325 323.121 C 385.023 324.704, 382.713 326, 382.192 326 C 381.671 326, 380.666 326.697, 379.959 327.550 C 379.252 328.402, 376.749 329.976, 374.397 331.047 C 372.045 332.118, 369.860 333.417, 369.541 333.934 C 369.221 334.451, 367.732 335.503, 366.230 336.273 C 357.455 340.773, 337.237 353.976, 334.514 356.984 C 333.511 358.093, 332.155 359, 331.500 359 C 330.845 359, 329.495 359.900, 328.500 361 C 327.505 362.100, 326.334 363, 325.898 363 C 325.463 363, 319.346 367.332, 312.307 372.626 C 305.267 377.920, 298.943 382.468, 298.253 382.733 C 297.466 383.035, 297 385.196, 297 388.548 C 297 391.482, 296.550 394.160, 296 394.500 C 295.450 394.840, 295 398.665, 295 403 C 295 407.335, 294.550 411.160, 294 411.500 C 293.437 411.848, 293 416.657, 293 422.500 C 293 428.343, 292.563 433.152, 292 433.500 C 291.450 433.840, 291 438.141, 291 443.059 L 291 452 300 452 C 304.971 452, 309 451.578, 309 451.057 C 309 449.405, 320.058 438.099, 326.390 433.277 C 337.903 424.510, 350.562 418.875, 367.264 415.082 C 373.484 413.669, 398.630 413.688, 404.736 415.109 C 428.490 420.639, 445.392 430.091, 458.617 445.239 L 464.500 451.978 500.071 451.989 L 535.641 452 540.781 445.586 C 552.335 431.167, 573.033 419.475, 595 414.956 C 601.325 413.655, 627.763 414.198, 635.500 415.787 C 642.983 417.325, 652.697 420.830, 660.083 424.660 C 668.688 429.120, 681.962 439.799, 687.278 446.537 L 691.500 451.888 700.250 451.944 L 709 452 709 443.059 C 709 438.141, 708.550 433.840, 708 433.500 C 707.437 433.152, 707 428.343, 707 422.500 C 707 416.657, 706.563 411.848, 706 411.500 C 705.450 411.160, 705 407.335, 705 403 C 705 398.665, 704.550 394.840, 704 394.500 C 703.450 394.160, 703 391.482, 703 388.548 C 703 385.196, 702.534 383.035, 701.747 382.733 C 701.057 382.468, 694.733 377.920, 687.693 372.626 C 680.654 367.332, 674.537 363, 674.102 363 C 673.666 363, 672.495 362.100, 671.500 361 C 670.505 359.900, 669.155 359, 668.500 359 C 667.845 359, 666.489 358.093, 665.486 356.984 C 662.780 353.995, 642.569 340.788, 633.855 336.316 C 632.401 335.569, 630.658 334.293, 629.983 333.479 C 629.308 332.666, 628.329 332, 627.808 332 C 627.287 332, 624.898 330.650, 622.500 329 C 620.102 327.350, 617.713 326, 617.192 326 C 616.671 326, 615.646 325.278, 614.914 324.396 C 614.181 323.514, 612.664 322.397, 611.541 321.915 C 610.418 321.432, 607.250 319.675, 604.500 318.009 C 601.750 316.343, 596.800 313.540, 593.500 311.778 C 590.200 310.017, 586.600 308.032, 585.500 307.367 C 583.361 306.073, 531.191 280.048, 524.500 276.936 C 513.466 271.806, 501.282 267.016, 499.500 267.108 C 498.400 267.165, 494.125 268.702, 490 270.523 M 215.308 456.716 C 188.972 484.093, 177 497.583, 177 499.883 C 177 501.873, 191.645 518.538, 213.002 540.851 C 225.773 554.194, 236.307 564.974, 236.412 564.806 C 236.516 564.638, 236.282 555.950, 235.891 545.500 C 234.980 521.163, 234.980 478.837, 235.891 454.500 C 236.282 444.050, 236.526 435.372, 236.433 435.216 C 236.340 435.059, 226.834 444.734, 215.308 456.716 M 764.140 452.119 C 764.491 461.679, 764.779 483.225, 764.779 500 C 764.779 516.775, 764.491 538.330, 764.140 547.900 L 763.500 565.301 782.803 545.400 C 801.661 525.960, 818.214 507.655, 821.574 502.527 C 823.192 500.059, 823.150 499.822, 820.375 495.790 C 816.630 490.347, 801.490 473.806, 780.401 452.119 L 763.500 434.739 764.140 452.119 M 379 456.650 C 374.583 457.182, 371.147 458.397, 363.073 462.279 C 356.229 465.570, 344.132 476.134, 341.524 481.098 C 334.564 494.349, 333.704 496.849, 332.328 507.831 C 331.599 513.652, 333.892 522.618, 338.637 532.500 C 348.737 553.536, 373.240 566.330, 395.225 562.048 C 414.687 558.256, 430.653 543.660, 437.648 523.265 C 439.701 517.279, 439.966 503.038, 438.137 497 C 434.299 484.332, 426.144 473.183, 415.423 465.948 C 411.390 463.227, 407.470 461, 406.712 461 C 405.954 461, 405.025 460.692, 404.648 460.315 C 402.155 457.821, 387.110 455.672, 379 456.650 M 606 456.692 C 603.525 456.931, 601.072 457.548, 600.550 458.063 C 600.028 458.578, 598.987 459, 598.237 459 C 597.487 459, 593.865 460.436, 590.187 462.192 C 570.941 471.377, 556.883 496.809, 560.442 516 C 561.668 522.612, 562.417 525.134, 564.073 528.236 C 564.583 529.191, 565 530.454, 565 531.041 C 565 533.306, 573.179 544.001, 578.707 548.966 C 598.725 566.944, 624.405 567.604, 646.618 550.711 C 652.776 546.028, 660.458 535.803, 662.930 529 C 663.629 527.075, 664.571 524.600, 665.021 523.500 C 669.049 513.669, 667.870 500.885, 661.749 488 C 656.560 477.079, 646.766 466.942, 636.813 462.192 C 633.135 460.436, 629.513 459, 628.763 459 C 628.013 459, 626.972 458.590, 626.450 458.089 C 625.298 456.984, 612.224 456.091, 606 456.692 M 289.448 514.750 C 290.601 555.087, 291.127 565.523, 292.052 566.450 C 292.573 566.972, 293 572.008, 293 577.641 C 293 583.390, 293.439 588.153, 294 588.500 C 294.550 588.840, 295 592.665, 295 597 C 295 601.335, 295.450 605.160, 296 605.500 C 296.550 605.840, 297.009 608.454, 297.021 611.309 L 297.042 616.500 303.271 620.693 C 306.697 622.999, 312.985 627.612, 317.244 630.943 C 321.503 634.274, 325.293 637, 325.665 637 C 326.038 637, 327.169 637.748, 328.178 638.661 C 329.188 639.575, 330.862 640.812, 331.900 641.411 C 332.937 642.010, 338.061 645.538, 343.286 649.250 C 348.511 652.962, 353.084 656, 353.448 656 C 353.812 656, 356.760 657.800, 360 660 C 363.240 662.200, 366.310 664, 366.823 664 C 367.336 664, 368.334 664.697, 369.041 665.550 C 369.748 666.402, 372.205 667.954, 374.500 669 C 376.795 670.046, 379.252 671.598, 379.959 672.450 C 380.666 673.303, 381.660 674, 382.168 674 C 382.675 674, 386.332 676.163, 390.295 678.807 C 394.258 681.450, 401.325 685.561, 406 687.942 C 410.675 690.323, 415.175 692.812, 416 693.474 C 418.124 695.177, 473.655 722.401, 482.500 726.076 C 483.600 726.533, 487.600 728.278, 491.388 729.953 C 495.177 731.629, 499.052 733, 500 733 C 500.948 733, 504.823 731.629, 508.612 729.953 C 512.400 728.278, 516.400 726.533, 517.500 726.076 C 526.315 722.413, 581.993 695.136, 584 693.497 C 584.825 692.823, 589.325 690.323, 594 687.942 C 598.675 685.561, 605.742 681.450, 609.705 678.807 C 613.668 676.163, 617.325 674, 617.832 674 C 618.340 674, 619.334 673.303, 620.041 672.450 C 620.748 671.598, 623.205 670.046, 625.500 669 C 627.795 667.954, 630.252 666.402, 630.959 665.550 C 631.666 664.697, 632.664 664, 633.177 664 C 633.690 664, 636.760 662.200, 640 660 C 643.240 657.800, 646.178 656, 646.529 656 C 647.380 656, 668.934 641.251, 671.564 638.869 C 672.700 637.841, 673.940 637, 674.321 637 C 674.701 637, 678.497 634.274, 682.756 630.943 C 687.015 627.612, 693.303 622.999, 696.729 620.693 L 702.958 616.500 702.979 611.309 C 702.991 608.454, 703.450 605.840, 704 605.500 C 704.550 605.160, 705 601.335, 705 597 C 705 592.665, 705.450 588.840, 706 588.500 C 706.561 588.153, 707 583.390, 707 577.641 C 707 572.008, 707.427 566.972, 707.948 566.450 C 709.578 564.817, 711.640 495, 710.058 495 C 709.359 495, 709 500.304, 709 510.634 C 709 519.233, 708.514 528.120, 707.921 530.384 C 705.368 540.120, 704.605 542.554, 703.826 543.450 C 703.372 543.972, 703 545.164, 703 546.098 C 703 547.033, 701.682 550.303, 700.071 553.365 C 690.506 571.549, 672.753 588.888, 655.500 596.898 C 652.750 598.174, 649.825 599.551, 649 599.957 C 648.175 600.363, 645.025 601.269, 642 601.971 C 638.975 602.674, 635.194 603.725, 633.598 604.308 C 631.974 604.902, 623.123 605.368, 613.500 605.368 C 603.877 605.368, 595.026 604.902, 593.402 604.308 C 591.806 603.725, 588.025 602.674, 585 601.971 C 581.975 601.269, 578.825 600.363, 578 599.957 C 577.175 599.551, 574.250 598.174, 571.500 596.898 C 553.829 588.694, 534.192 569.134, 526.184 551.761 C 524.983 549.154, 524 546.368, 524 545.570 C 524 544.771, 523.550 543.840, 523 543.500 C 522.450 543.160, 522 541.810, 522 540.500 C 522 539.190, 521.598 537.869, 521.106 537.565 C 519.600 536.635, 518.812 529.255, 518.351 511.750 L 517.909 495 500.002 495 L 482.095 495 481.682 510.750 C 481.455 519.413, 480.965 528.075, 480.594 530 C 478.554 540.569, 475.551 548.617, 469.882 558.709 C 466.357 564.986, 463.634 568.426, 455.531 576.836 C 446.977 585.715, 439.885 591.077, 430.379 595.853 C 425.198 598.456, 421.094 599.928, 407.021 604.231 C 401.946 605.783, 371.679 605.645, 365 604.039 C 353.023 601.160, 337.737 594.659, 332.921 590.397 C 332.053 589.629, 330.825 589, 330.193 589 C 328.567 589, 307 567.241, 307 565.600 C 307 564.855, 306.330 563.689, 305.512 563.010 C 303.717 561.520, 296.034 545.951, 294.948 541.601 C 294.522 539.896, 293.459 535.891, 292.587 532.701 C 291.446 528.534, 291 522.414, 291 510.951 C 291 500.398, 290.642 495, 289.942 495 C 289.214 495, 289.060 501.169, 289.448 514.750 M 137.611 554.374 C 135.561 557.880, 133.034 562.268, 131.996 564.124 C 129.612 568.387, 117.130 593.660, 115.759 597 C 114.359 600.409, 112.904 604.054, 111.866 606.750 C 111.390 607.987, 110.573 610.013, 110.050 611.250 C 103.763 626.147, 98 654.815, 98 671.195 C 98 686.357, 102.292 705.420, 108.176 716.387 C 113.377 726.083, 116.855 731.191, 123.666 739.142 C 128.459 744.736, 144.047 758, 145.828 758 C 146.338 758, 147.317 758.677, 148.003 759.504 C 151.454 763.662, 181.003 775.817, 196.500 779.453 C 200.350 780.356, 204.400 781.348, 205.500 781.656 C 207.925 782.335, 216.710 783.724, 227.500 785.134 C 231.900 785.709, 245.567 786.380, 257.871 786.627 C 275.836 786.986, 280.149 786.821, 279.768 785.787 C 279.348 784.646, 273.507 766.620, 267.969 749.369 C 266.886 745.997, 266 742.311, 266 741.178 C 266 740.045, 265.600 738.871, 265.110 738.568 C 264.621 738.266, 263.978 736.552, 263.682 734.759 C 262.783 729.328, 261.894 725.605, 260.993 723.500 C 260.522 722.400, 259.908 720.150, 259.630 718.500 C 259.351 716.850, 258.609 713.475, 257.980 711 C 257.351 708.525, 256.601 704.810, 256.313 702.744 C 256.025 700.678, 255.386 698.739, 254.894 698.435 C 254.402 698.131, 254 696.135, 254 694 C 254 691.865, 253.550 689.840, 253 689.500 C 252.450 689.160, 252 686.685, 252 684 C 252 681.315, 251.550 678.840, 251 678.500 C 250.450 678.160, 250 675.910, 250 673.500 C 250 671.090, 249.550 668.840, 249 668.500 C 248.450 668.160, 248 665.524, 248 662.641 C 248 659.758, 247.580 656.972, 247.067 656.450 C 246.554 655.928, 245.991 653.734, 245.817 651.576 C 245.526 647.975, 244.720 647.003, 236 639.732 C 230.775 635.376, 222.701 628.592, 218.058 624.656 C 206.086 614.507, 162.004 570.449, 151.618 558.250 C 146.818 552.612, 142.541 548, 142.115 548 C 141.688 548, 139.662 550.868, 137.611 554.374 M 848.383 558.250 C 837.956 570.498, 793.879 614.557, 781.952 624.656 C 777.303 628.592, 769.225 635.376, 764 639.733 C 754.883 647.335, 754.487 647.832, 754.187 652.077 C 754.015 654.510, 753.452 656.928, 752.937 657.450 C 752.422 657.972, 752 660.758, 752 663.641 C 752 666.524, 751.550 669.160, 751 669.500 C 750.450 669.840, 750 672.090, 750 674.500 C 750 676.910, 749.550 679.160, 749 679.500 C 748.450 679.840, 748 682.090, 748 684.500 C 748 686.910, 747.550 689.160, 747 689.500 C 746.450 689.840, 746 691.865, 746 694 C 746 696.135, 745.550 698.160, 745 698.500 C 744.450 698.840, 744 700.865, 744 703 C 744 705.135, 743.550 707.160, 743 707.500 C 742.450 707.840, 742 709.640, 742 711.500 C 742 713.360, 741.550 715.160, 741 715.500 C 740.450 715.840, 740 717.640, 740 719.500 C 740 721.360, 739.600 723.129, 739.110 723.432 C 738.270 723.951, 737.962 725.189, 736.419 734.259 C 736.067 736.327, 735.379 738.266, 734.890 738.568 C 734.400 738.871, 734 740.045, 734 741.178 C 734 742.311, 733.114 745.997, 732.031 749.369 C 730.272 754.849, 721.457 782.538, 720.438 785.786 C 720.115 786.818, 724.446 786.984, 742.267 786.626 C 754.495 786.380, 768.100 785.709, 772.500 785.134 C 783.290 783.724, 792.075 782.335, 794.500 781.656 C 795.600 781.348, 799.650 780.356, 803.500 779.453 C 818.997 775.817, 848.546 763.662, 851.997 759.504 C 852.683 758.677, 853.675 758, 854.201 758 C 855.635 758, 869.950 746.359, 874.328 741.633 C 878.880 736.718, 885.792 727.691, 888.213 723.500 C 900.225 702.703, 904.479 677.656, 900.424 651.619 C 897.840 635.032, 892.071 614.417, 886.817 603 C 885.678 600.525, 884.402 597.600, 883.981 596.500 C 882.984 593.897, 870.452 568.501, 868.004 564.124 C 862.369 554.047, 858.574 548, 857.885 548 C 857.459 548, 853.183 552.612, 848.383 558.250 M 312.461 699.250 C 313.354 702.143, 314.741 707.678, 315.531 711.500 C 315.872 713.150, 316.504 715.400, 316.937 716.500 C 318.701 720.989, 320 725.764, 320 727.762 C 320 728.928, 320.450 730.160, 321 730.500 C 321.550 730.840, 322 732.415, 322 734 C 322 735.585, 322.450 737.160, 323 737.500 C 323.550 737.840, 324 738.998, 324 740.073 C 324 741.148, 324.450 742.921, 325 744.014 C 325.550 745.106, 326.450 746.894, 327 747.986 C 327.550 749.079, 328 751.077, 328 752.427 C 328 753.777, 328.450 755.160, 329 755.500 C 329.550 755.840, 330 756.998, 330 758.073 C 330 759.148, 330.520 761.034, 331.156 762.264 C 333.584 766.960, 334 768.019, 334 769.500 C 334 770.340, 334.421 771.809, 334.935 772.764 C 335.448 773.719, 336.458 775.962, 337.179 777.750 C 338.620 781.327, 339.042 781.445, 345.236 780.015 C 347.581 779.474, 353.100 778.363, 357.500 777.548 C 366.934 775.799, 386.810 771.482, 392.500 769.947 C 398.789 768.249, 403.250 767.141, 406.500 766.469 C 409.456 765.858, 412.833 764.615, 416.236 762.883 C 417.191 762.397, 419.302 762, 420.927 762 C 422.552 762, 424.160 761.550, 424.500 761 C 424.840 760.450, 424.504 760, 423.753 760 C 423.002 760, 415.213 756.344, 406.444 751.874 C 384.146 740.511, 379.107 737.824, 374.270 734.717 C 371.943 733.223, 369.863 732, 369.648 732 C 369.432 732, 365.036 729.461, 359.878 726.358 C 354.720 723.254, 349.150 719.935, 347.500 718.982 C 340.396 714.877, 329.885 708.282, 321.788 702.847 C 316.997 699.631, 312.782 697, 312.422 697 C 312.061 697, 312.079 698.013, 312.461 699.250 M 678.500 702.617 C 674.100 705.640, 667.376 710, 663.558 712.306 C 659.739 714.613, 654.764 717.625, 652.502 719 C 650.239 720.375, 646.163 722.801, 643.444 724.391 C 640.725 725.980, 636.822 728.343, 634.771 729.641 C 632.721 730.938, 630.799 732, 630.502 732 C 630.204 732, 628.057 733.219, 625.730 734.710 C 620.317 738.177, 611.408 742.892, 591.793 752.670 C 583.154 756.977, 576.066 760.837, 576.043 761.250 C 576.019 761.663, 577.548 762, 579.441 762 C 581.334 762, 583.160 762.450, 583.500 763 C 583.840 763.550, 585.190 764, 586.500 764 C 587.810 764, 589.128 764.398, 589.429 764.885 C 589.729 765.371, 591.219 766.019, 592.738 766.323 C 595.898 766.957, 601.687 768.378, 607.500 769.947 C 613.190 771.482, 633.066 775.799, 642.500 777.548 C 646.900 778.363, 652.419 779.474, 654.764 780.015 C 660.958 781.445, 661.380 781.327, 662.821 777.750 C 663.542 775.962, 664.552 773.719, 665.065 772.764 C 665.579 771.809, 666 770.340, 666 769.500 C 666 768.660, 666.450 767.079, 667 765.986 C 667.550 764.894, 668.450 763.106, 669 762.014 C 669.550 760.921, 670 759.148, 670 758.073 C 670 756.998, 670.450 755.840, 671 755.500 C 671.550 755.160, 672 753.810, 672 752.500 C 672 751.190, 672.450 749.840, 673 749.500 C 673.550 749.160, 674 747.810, 674 746.500 C 674 745.190, 674.450 743.840, 675 743.500 C 675.550 743.160, 676 741.810, 676 740.500 C 676 739.190, 676.450 737.840, 677 737.500 C 677.550 737.160, 678 735.585, 678 734 C 678 732.415, 678.450 730.840, 679 730.500 C 679.550 730.160, 680 728.585, 680 727 C 680 725.415, 680.450 723.840, 681 723.500 C 681.550 723.160, 682 721.585, 682 720 C 682 718.415, 682.400 716.871, 682.890 716.568 C 683.379 716.266, 684.021 714.552, 684.317 712.759 C 684.895 709.263, 686.410 702.910, 687.539 699.250 C 687.921 698.013, 687.843 697.027, 687.367 697.060 C 686.890 697.093, 682.900 699.594, 678.500 702.617 M 494.500 796 C 494.160 796.550, 493.002 797, 491.927 797 C 490.852 797, 488.966 797.520, 487.736 798.156 C 483.085 800.561, 481.988 801, 480.637 801 C 479.872 801, 475.928 802.306, 471.873 803.903 C 467.818 805.500, 460.450 808.003, 455.500 809.466 C 450.550 810.929, 445.375 812.495, 444 812.947 C 442.625 813.398, 439.475 814.314, 437 814.981 C 434.525 815.649, 431.719 816.601, 430.764 817.097 C 429.809 817.594, 427.923 818, 426.573 818 C 425.223 818, 423.871 818.400, 423.568 818.890 C 423.266 819.379, 421.327 820.067, 419.259 820.419 C 410.189 821.962, 408.951 822.270, 408.432 823.110 C 408.129 823.600, 406.360 824, 404.500 824 C 402.640 824, 400.840 824.450, 400.500 825 C 400.160 825.550, 398.360 826, 396.500 826 C 394.640 826, 392.840 826.450, 392.500 827 C 392.160 827.550, 390.135 828, 388 828 C 385.865 828, 383.840 828.450, 383.500 829 C 383.160 829.550, 381.135 830, 379 830 C 376.865 830, 374.840 830.450, 374.500 831 C 374.160 831.550, 371.685 832, 369 832 C 366.315 832, 363.813 832.493, 363.441 833.095 C 362.680 834.327, 364.122 837.520, 368.219 843.680 C 369.749 845.979, 371 848.148, 371 848.500 C 371 848.852, 372.304 851.035, 373.898 853.352 C 375.492 855.669, 378.024 859.800, 379.524 862.532 C 381.025 865.265, 383.178 868.517, 384.310 869.761 C 385.442 871.004, 387.298 873.547, 388.434 875.412 C 398.582 892.071, 430.070 922.780, 446.500 932.040 C 448.700 933.280, 452.844 935.592, 455.710 937.178 C 465.733 942.724, 489.245 949, 500 949 C 514.615 949, 537.401 941.771, 554 931.867 C 569.145 922.832, 595.547 897.768, 608.295 880.325 C 609.833 878.221, 612.573 874.475, 614.386 872 C 616.198 869.525, 618.923 865.265, 620.442 862.532 C 621.961 859.800, 624.508 855.669, 626.102 853.352 C 627.696 851.035, 629 848.713, 629 848.192 C 629 847.671, 629.665 846.693, 630.477 846.019 C 632.649 844.217, 637.290 834.278, 636.533 833.053 C 636.175 832.474, 633.685 832, 631 832 C 628.315 832, 625.869 831.598, 625.565 831.106 C 625.036 830.249, 622.982 829.811, 613 828.421 C 610.525 828.077, 608.072 827.391, 607.550 826.898 C 607.027 826.404, 605.142 826, 603.359 826 C 601.576 826, 599.840 825.550, 599.500 825 C 599.160 824.450, 597.360 824, 595.500 824 C 593.640 824, 591.871 823.600, 591.568 823.110 C 591.266 822.621, 589.439 821.946, 587.509 821.610 C 585.579 821.275, 582.421 820.725, 580.491 820.390 C 578.561 820.054, 576.734 819.379, 576.432 818.890 C 576.129 818.400, 574.777 818, 573.427 818 C 572.077 818, 570.191 817.594, 569.236 817.097 C 568.281 816.601, 565.700 815.706, 563.500 815.109 C 558.589 813.775, 540.951 808.375, 535.500 806.535 C 519.289 801.065, 514.809 799.432, 511.764 797.883 C 510.809 797.397, 509.148 797, 508.073 797 C 506.998 797, 505.840 796.550, 505.500 796 C 505.160 795.450, 502.685 795, 500 795 C 497.315 795, 494.840 795.450, 494.500 796" stroke="none" fill="#fffcfc" fill-rule="evenodd"/><path d="" stroke="none" fill="#fcfcfc" fill-rule="evenodd"/></svg>